<svg xmlns="http://www.w3.org/2000/svg" viewBox="0 0 374 95">
  <defs>
    <linearGradient id="lg" x1="0%" y1="0%" x2="100%" y2="0%">
      <stop offset="0%" stop-color="#6B3FA0"/>
      <stop offset="100%" stop-color="#4E2C78"/>
    </linearGradient>
  </defs>

  <!-- "co" in dark stone -->
  <path d="M18.21 80.56L18.21 80.56Q13.78 80.56 10.23 78.63Q6.68 76.7 4.54 73.21Q2.39 69.73 2.39 65.3L2.39 65.3Q2.39 60.88 4.64 57.04Q6.89 53.21 10.83 50.89Q14.77 48.57 19.9 48.57L19.9 48.57Q22.99 48.57 25.45 49.38Q27.91 50.19 29.39 51.66Q30.87 53.14 30.87 54.97L30.87 54.97Q30.87 56.73 29.78 57.61Q28.69 58.48 27.14 58.48L27.14 58.48Q25.8 58.48 24.79 57.99Q23.77 57.5 22.43 56.38L22.43 56.38L17.3 51.88L20.88 52.72Q18.84 52.23 16.84 53.28Q14.84 54.34 13.57 56.76Q12.3 59.19 12.3 62.84L12.3 62.84Q12.3 68.26 14.94 71Q17.58 73.74 21.45 73.74L21.45 73.74Q23.41 73.74 25.35 72.86Q27.28 71.98 29.11 69.8L29.11 69.8L31.36 71.84Q29.39 76.13 25.84 78.35Q22.29 80.56 18.21 80.56ZM50.91 80.56L50.91 80.56Q45.98 80.56 42.26 78.56Q38.53 76.55 36.42 73Q34.31 69.45 34.31 64.88L34.31 64.88Q34.31 59.68 36.7 56.02Q39.09 52.37 42.96 50.47Q46.83 48.57 51.19 48.57L51.19 48.57Q55.83 48.57 59.38 50.54Q62.93 52.51 64.93 56.06Q66.94 59.61 66.94 64.18L66.94 64.18Q66.94 68.82 64.79 72.51Q62.65 76.2 58.99 78.38Q55.34 80.56 50.91 80.56ZM51.61 76.06L51.61 76.06Q53.37 76.06 54.6 74.94Q55.83 73.81 56.5 71.63Q57.16 69.45 57.16 66.43L57.16 66.43Q57.16 60.38 55.23 56.59Q53.3 52.79 50.06 52.79L50.06 52.79Q47.39 52.79 45.84 55.5Q44.3 58.2 44.3 62.84L44.3 62.84Q44.3 66.57 45.25 69.59Q46.2 72.62 47.85 74.34Q49.5 76.06 51.61 76.06Z" fill="#201A2A"/>

  <!-- "Journalist" in purple gradient (i-tittle removed) -->
  <path d="M91.2 42.24L86.7 43.3Q86.55 43.58 86.45 45.05Q86.34 46.53 86.31 48.85Q86.27 51.17 86.27 54.13L86.27 54.13L86.34 79.72Q86.34 84.15 84.73 87.42Q83.11 90.69 80.12 92.48Q77.13 94.27 73.13 94.27L73.13 94.27Q68.84 94.27 66.02 92.62Q63.21 90.97 63.21 88.44L63.21 88.44Q63.21 86.75 64.23 85.77Q65.25 84.78 66.73 84.78L66.73 84.78Q67.99 84.78 69.15 85.31Q70.31 85.84 71.58 87.1L71.58 87.1L76.57 91.81L72.7 90.41Q74.39 90.62 75.27 90.05Q76.15 89.49 76.5 87.45Q76.85 85.41 76.85 81.55L76.85 81.55L76.78 53.91Q76.78 51.31 76.71 49.03Q76.64 46.74 76.54 45.16Q76.43 43.58 76.29 43.23L76.29 43.23L71.37 42.24L71.58 38.73L90.98 38.73L91.2 42.24ZM111.8 80.56L111.8 80.56Q106.88 80.56 103.15 78.56Q99.42 76.55 97.31 73Q95.2 69.45 95.2 64.88L95.2 64.88Q95.2 59.68 97.59 56.02Q99.98 52.37 103.85 50.47Q107.72 48.57 112.08 48.57L112.08 48.57Q116.72 48.57 120.27 50.54Q123.82 52.51 125.82 56.06Q127.83 59.61 127.83 64.18L127.83 64.18Q127.83 68.82 125.68 72.51Q123.54 76.2 119.88 78.38Q116.23 80.56 111.8 80.56ZM112.5 76.06L112.5 76.06Q114.26 76.06 115.49 74.94Q116.72 73.81 117.39 71.63Q118.05 69.45 118.05 66.43L118.05 66.43Q118.05 60.38 116.12 56.59Q114.19 52.79 110.95 52.79L110.95 52.79Q108.28 52.79 106.73 55.5Q105.19 58.2 105.19 62.84L105.19 62.84Q105.19 66.57 106.14 69.59Q107.09 72.62 108.74 74.34Q110.39 76.06 112.5 76.06ZM165.73 73.67L165.73 73.67L170.37 74.66L170.37 77.68L158.41 80.91L156.52 79.86L156.59 74.94L156.38 74.87Q154.34 78.1 151.98 79.4Q149.63 80.7 147.09 80.7L147.09 80.7Q142.03 80.7 138.87 77.5Q135.7 74.3 135.7 67.98L135.7 67.98L135.7 62Q135.7 60.45 135.63 58.98Q135.56 57.5 135.42 56.02L135.42 56.02L130.64 55.04L130.64 51.88L143.3 48.71L145.27 49.91Q145.13 52.02 144.98 54.97Q144.84 57.92 144.84 61.02L144.84 61.02L144.77 66.92Q144.77 70.58 146.39 72.27Q148.01 73.95 150.82 73.95L150.82 73.95Q152.23 73.95 153.74 73.18Q155.25 72.41 156.3 70.65L156.3 70.65L156.3 63.83Q156.3 62.14 156.3 60.84Q156.3 59.54 156.2 58.38Q156.09 57.22 155.95 56.02L155.95 56.02L150.96 55.04L150.96 51.88L163.69 48.71L165.59 49.91Q165.45 51.1 165.41 52.58Q165.38 54.05 165.34 55.99Q165.3 57.92 165.3 60.38L165.3 60.38L165.3 66.01Q165.3 67.7 165.41 69.63Q165.52 71.56 165.73 73.67ZM192.52 80L172.55 80L172.34 76.77L176.7 75.57Q176.77 75.29 176.84 74.27Q176.91 73.25 176.98 71.74Q177.05 70.23 177.05 68.54L177.05 68.54L177.12 63.27Q177.12 61.16 176.98 59.5Q176.84 57.85 176.48 56.02L176.48 56.02L171.98 55.04L171.98 51.88L184.15 48.71L185.98 49.91L185.7 55.46L185.91 55.53Q187.95 51.59 190.02 50.19Q192.09 48.78 194.27 48.78L194.27 48.78Q196.17 48.78 197.61 49.84Q199.05 50.89 199.05 53.14L199.05 53.14Q199.05 55.39 197.51 56.66Q195.96 57.92 193.92 57.92L193.92 57.92Q192.23 57.92 190.9 57.32Q189.56 56.73 187.95 55.18L187.95 55.18L189.91 55.39Q188.86 56.16 187.88 57.36Q186.89 58.55 186.19 60.1L186.19 60.1L186.26 65.66Q186.33 68.26 186.36 70.33Q186.4 72.41 186.47 73.78Q186.54 75.15 186.61 75.57L186.61 75.57L192.73 76.63L192.52 80ZM219.3 80L201.3 80L201.09 76.77L205.45 75.57Q205.52 75.29 205.59 74.3Q205.66 73.32 205.73 71.81Q205.8 70.3 205.8 68.54L205.8 68.54L205.88 63.2Q205.88 61.02 205.73 59.4Q205.59 57.78 205.24 56.02L205.24 56.02L200.74 55.04L200.74 51.88L213.12 48.71L215.02 49.91L214.59 54.05L214.8 54.13Q216.98 51.31 219.62 49.94Q222.26 48.57 225.21 48.57L225.21 48.57Q228.23 48.57 230.59 50.05Q232.95 51.52 234.35 54.37Q235.76 57.22 235.76 61.23L235.76 61.23L235.76 68.47Q235.76 70.86 235.83 72.93Q235.9 75.01 236.11 75.57L236.11 75.57L240.47 76.77L240.26 80L222.61 80L222.4 76.77L226.41 75.57Q226.55 74.94 226.62 73.78Q226.69 72.62 226.72 71.21Q226.76 69.8 226.76 68.54L226.76 68.54L226.76 62.63Q226.76 59.96 225.95 58.31Q225.14 56.66 223.84 55.88Q222.54 55.11 220.85 55.11L220.85 55.11Q219.09 55.11 217.58 55.88Q216.07 56.66 214.88 58.13L214.88 58.13L214.88 68.47Q214.88 70.86 214.98 72.93Q215.09 75.01 215.23 75.57L215.23 75.57L219.52 76.77L219.3 80ZM254.53 80.56L254.53 80.56Q251.3 80.56 248.94 79.16Q246.59 77.75 245.36 75.78Q244.13 73.81 244.13 72.05L244.13 72.05Q244.13 69.52 245.71 67.8Q247.29 66.08 250.59 65.09L250.59 65.09L261.63 61.86L261.63 59.33Q261.63 57.85 260.68 56.55Q259.73 55.25 258.19 54.41Q256.64 53.56 254.88 53.56L254.88 53.56Q253.76 53.56 253.3 54.09Q252.84 54.62 252.7 56.16L252.7 56.16L252.35 60.45Q248.84 61.16 246.62 60.21Q244.41 59.26 244.41 57.08L244.41 57.08Q244.41 55.74 245.81 54.34Q247.22 52.93 249.29 51.7Q251.37 50.47 253.55 49.59Q255.73 48.71 257.34 48.57L257.34 48.57Q263.6 48.57 267.26 51.42Q270.91 54.27 270.98 59.05L270.98 59.05L270.77 68.82Q270.77 70.79 270.88 71.91Q270.98 73.04 271.27 73.74L271.27 73.74L275.91 74.59L275.91 77.54L271.34 79.51Q270.07 80 269.02 80.28Q267.96 80.56 266.98 80.56L266.98 80.56Q264.23 80.56 263.11 77.75L263.11 77.75L261.91 74.52L263.39 74.87Q261.21 77.54 258.93 79.05Q256.64 80.56 254.53 80.56ZM258.12 74.23L258.12 74.23Q259.1 74.23 260.02 73.85Q260.93 73.46 261.7 72.69L261.7 72.69L261.7 65.8L256.92 66.71Q255.16 66.92 254.43 67.77Q253.69 68.61 253.69 70.02L253.69 70.02Q253.69 71.63 254.99 72.93Q256.29 74.23 258.12 74.23ZM296.23 80L277.52 80L277.31 76.7L281.88 75.57Q281.95 74.8 282.06 72.86Q282.16 70.93 282.23 68.4Q282.3 65.87 282.3 63.48L282.3 63.48L282.3 54.62Q282.3 52.16 282.27 49.73Q282.23 47.3 282.2 45.09Q282.16 42.88 282.09 41.08Q282.02 39.29 281.88 38.16L281.88 38.16L276.68 37.46L276.54 34.44L289.97 30.99L291.94 32.19Q291.8 35.14 291.69 37.92Q291.59 40.7 291.59 44.21Q291.59 47.73 291.52 52.79L291.52 52.79L291.45 63.13Q291.45 68.05 291.55 71.46Q291.66 74.87 291.8 75.57L291.8 75.57L296.37 76.7L296.23 80ZM317.25 80L298.41 80L298.2 76.7L302.91 75.57Q302.98 75.29 303.05 74.27Q303.12 73.25 303.19 71.77Q303.26 70.3 303.26 68.54L303.26 68.54L303.33 63.27Q303.33 61.16 303.19 59.47Q303.05 57.78 302.7 56.02L302.7 56.02L297.98 55.04L297.98 51.88L310.92 48.71L312.82 49.91Q312.61 52.16 312.5 54.44Q312.4 56.73 312.4 59.61L312.4 59.61L312.4 68.47Q312.4 70.79 312.5 72.9Q312.61 75.01 312.75 75.57L312.75 75.57L317.46 76.7L317.25 80ZM331.95 80.56L331.95 80.56Q328.99 80.56 326.11 79.89Q323.23 79.23 321.26 78.17L321.26 78.17L320.91 69.95L325.41 69.95L326.88 75.01Q329.55 76.55 332.44 76.55L332.44 76.55Q334.62 76.55 335.74 75.68Q336.87 74.8 336.87 73.32L336.87 73.32Q336.87 71.77 335.64 70.65Q334.41 69.52 330.61 68.12L330.61 68.12Q325.41 66.22 323.37 63.97Q321.33 61.72 321.33 58.34L321.33 58.34Q321.33 55.46 323.09 53.25Q324.84 51.03 328.01 49.8Q331.17 48.57 335.32 48.57L335.32 48.57Q337.57 48.57 339.89 48.99Q342.21 49.41 343.69 50.12L343.69 50.12L344.53 58.27L340.03 58.27L338.48 53.28Q337.78 52.86 336.76 52.61Q335.74 52.37 334.83 52.37L334.83 52.37Q332.72 52.37 331.42 53.28Q330.12 54.2 330.12 55.74L330.12 55.74Q330.12 57.43 331.66 58.55Q333.21 59.68 337.29 61.37L337.29 61.37Q341.93 63.27 343.9 65.41Q345.87 67.55 345.87 70.72L345.87 70.72Q345.87 75.15 342 77.86Q338.13 80.56 331.95 80.56ZM371.95 72.13L373.78 74.09Q372.73 77.12 369.95 78.91Q367.17 80.7 363.73 80.7L363.73 80.7Q358.88 80.7 355.75 77.86Q352.62 75.01 352.62 69.31L352.62 69.31L352.83 53.63L347.91 53.63L347.91 51.45L359.93 41.89L362.11 41.89L361.97 51.8L361.83 68.47Q361.83 71.42 363.23 72.72Q364.64 74.02 367.17 74.02L367.17 74.02Q368.51 74.02 369.77 73.5Q371.04 72.97 371.95 72.13L371.95 72.13ZM371.81 53.63L358.38 53.63L358.38 49.2L371.81 49.2L371.81 53.63Z" fill="url(#lg)"/>

  <!-- Broadcast symbol replacing i-tittle -->
  <path d="M 295.83 34 A 12 12 0 0 1 319.83 34"
        fill="none" stroke="url(#lg)" stroke-width="2.5" stroke-linecap="round" opacity="0.4"/>
  <path d="M 300.83 34 A 7 7 0 0 1 314.83 34"
        fill="none" stroke="url(#lg)" stroke-width="2.5" stroke-linecap="round" opacity="0.7"/>
  <circle cx="307.83" cy="37.3" r="4" fill="url(#lg)"/>
</svg>